<svg width="109" height="40" viewBox="0 0 109 40" fill="none" xmlns="http://www.w3.org/2000/svg">
<g clip-path="url(#clip0_413_880)">
<path d="M56.2746 13.2489L61.4604 12.9177C61.5787 13.7555 61.7956 14.379 62.1505 14.8271C62.7223 15.5285 63.511 15.8792 64.5561 15.8792C65.3251 15.8792 65.9363 15.7038 66.3504 15.3337C66.7448 15.0414 66.9814 14.5738 66.9814 14.0867C66.9814 13.6191 66.7645 13.171 66.3898 12.8787C65.9955 12.528 65.0687 12.1773 63.6096 11.8656C61.2238 11.3395 59.5083 10.6381 58.5027 9.74184C57.4971 8.90404 56.9253 7.67657 56.9647 6.37116C56.9647 5.47491 57.2408 4.57866 57.7534 3.83828C58.345 3.00048 59.1534 2.33804 60.1196 1.96785C61.1646 1.51972 62.6237 1.28592 64.4575 1.28592C66.7053 1.28592 68.4208 1.69508 69.6038 2.53287C70.7869 3.35119 71.4968 4.67608 71.7136 6.48806L66.587 6.78032C66.449 6.00097 66.1729 5.43594 65.7194 5.06575C65.2659 4.69556 64.6744 4.52021 63.9054 4.52021C63.2744 4.52021 62.8012 4.6566 62.4857 4.90988C62.1899 5.14369 61.9928 5.49439 62.0125 5.88407C62.0125 6.17632 62.1702 6.44909 62.4068 6.62445C62.6632 6.85825 63.2744 7.07257 64.2406 7.26741C66.6265 7.77399 68.3222 8.28056 69.3672 8.80662C70.4123 9.33268 71.1616 9.97564 71.6151 10.7355C72.0883 11.5149 72.3249 12.4111 72.3052 13.3268C72.3052 14.4179 71.9897 15.509 71.3587 16.4247C70.708 17.3794 69.801 18.1198 68.7363 18.5679C67.6123 19.055 66.1927 19.3083 64.4969 19.3083C61.4998 19.3083 59.4295 18.7433 58.2661 17.5938C57.1028 16.4442 56.4126 15.0024 56.2746 13.2489ZM1.24222 19.0161V1.59766H10.3321C12.0081 1.59766 13.3095 1.73404 14.1968 2.0263C15.0644 2.29907 15.8334 2.8641 16.3461 3.62396C16.9179 4.46176 17.1939 5.43594 17.1742 6.44909C17.2334 8.16366 16.3461 9.80029 14.8278 10.6576C14.2363 10.9888 13.5856 11.2226 12.9152 11.3395C13.4081 11.4759 13.901 11.7097 14.3348 11.9825C14.67 12.2552 14.9461 12.567 15.2024 12.8982C15.4982 13.2294 15.7545 13.5996 15.9714 13.9893L18.6136 19.0356H12.4222L9.50398 13.6775C9.12934 12.9956 8.81386 12.5475 8.51809 12.3332C8.12373 12.0604 7.65051 11.924 7.17728 11.924H6.70405V18.9966H1.24222V19.0161ZM6.70405 8.65075H9.01104C9.50398 8.61178 9.97721 8.53385 10.4504 8.41695C10.8054 8.3585 11.1208 8.16366 11.3377 7.8714C11.8701 7.16999 11.7912 6.17632 11.1406 5.57233C10.7856 5.28007 10.0955 5.1242 9.10962 5.1242H6.70405V8.65075ZM0 33.9406L5.18578 33.6093C5.30409 34.4471 5.52098 35.0706 5.8759 35.5187C6.428 36.2202 7.23643 36.5904 8.28148 36.5904C9.05047 36.5904 9.66172 36.415 10.0758 36.0448C10.4702 35.7331 10.7068 35.2849 10.7068 34.7979C10.7068 34.3302 10.4899 33.8821 10.1152 33.5899C9.72088 33.2392 8.79414 32.8885 7.3153 32.5767C4.92945 32.0507 3.214 31.3492 2.20839 30.453C1.20279 29.6152 0.63097 28.3877 0.670405 27.0823C0.670405 26.1861 0.946455 25.2898 1.45912 24.5494C2.05065 23.7116 2.85908 23.0492 3.82525 22.679C4.8703 22.2309 6.32941 21.9971 8.16317 21.9971C10.411 21.9971 12.1264 22.4062 13.3095 23.244C14.4926 24.0818 15.1827 25.3872 15.3996 27.1992L10.273 27.4915C10.1349 26.7121 9.8589 26.1471 9.40539 25.7769C8.9716 25.4067 8.36035 25.2314 7.59135 25.2509C6.96038 25.2509 6.48716 25.3872 6.17167 25.66C5.85619 25.8938 5.67873 26.2445 5.69844 26.6342C5.69844 26.9264 5.85619 27.1992 6.0928 27.3746C6.34913 27.6084 6.96038 27.8227 7.92656 28.0175C10.3124 28.5241 12.0081 29.0307 13.0532 29.5567C14.0982 30.0828 14.8475 30.7258 15.301 31.4856C15.7742 32.265 16.0109 33.1612 16.0109 34.0575C16.0109 35.1486 15.6757 36.2202 15.0644 37.1359C14.4137 38.0906 13.5067 38.831 12.4419 39.2791C11.318 39.7662 9.89834 40.0195 8.20261 40.0195C5.2055 40.0195 3.13513 39.4545 1.97178 38.3049C0.80843 37.1359 0.157742 35.6941 0 33.9406Z" fill="#CAC2D7"/>
<path d="M26.2247 32.5767L30.9964 33.999C30.7401 35.1875 30.2077 36.3176 29.4781 37.3112C28.8077 38.188 27.9204 38.8699 26.9148 39.3181C25.8895 39.7662 24.5881 40 23.0107 40C21.0981 40 19.5206 39.7272 18.3179 39.1817C17.0954 38.6361 16.0503 37.6619 15.163 36.2786C14.2757 34.8953 13.8419 33.1223 13.8419 30.9596C13.8419 28.076 14.6109 25.8548 16.1686 24.3156C17.7263 22.7764 19.915 21.9971 22.7544 21.9971C24.9825 21.9971 26.7176 22.4452 27.9993 23.322C29.2612 24.2182 30.2077 25.5821 30.8387 27.4135L26.0275 28.4657C25.9092 28.0565 25.7318 27.6473 25.4951 27.2966C25.1994 26.8875 24.8247 26.5757 24.3712 26.3419C23.9177 26.1081 23.4051 26.0107 22.8924 26.0107C21.6502 26.0107 20.7037 26.4978 20.053 27.4915C19.5601 28.2124 19.3038 29.3619 19.3038 30.9206C19.3038 32.8495 19.5995 34.1744 20.1911 34.8953C20.7826 35.6162 21.6107 35.9669 22.6952 35.9669C23.7403 35.9669 24.529 35.6746 25.0613 35.1096C25.5937 34.5056 25.9881 33.6678 26.2247 32.5767ZM37.3653 22.2893H42.8074V28.3877H48.7621V22.2893H54.2437V39.7077H48.7621V32.6546H42.8074V39.7077H37.3653V22.2893Z" fill="#CAC2D7"/>
<path d="M53.4944 30.9985C53.4944 28.1539 54.3028 25.9328 55.9 24.3546C57.4971 22.7764 59.7449 21.9776 62.604 21.9776C65.542 21.9776 67.7898 22.7569 69.3869 24.3156C70.9841 25.8743 71.7728 28.0565 71.7728 30.8622C71.7728 32.9079 71.4179 34.5641 70.7277 35.8695C70.0573 37.1554 69.0123 38.2075 67.7306 38.9089C66.4095 39.6298 64.773 40 62.8209 40C60.8294 40 59.1928 39.6883 57.8915 39.0648C56.5506 38.4023 55.4464 37.3697 54.7169 36.1033C53.9085 34.7394 53.4944 33.0443 53.4944 30.9985ZM58.9365 31.018C58.9365 32.7716 59.2717 34.038 59.9224 34.8173C60.5731 35.5772 61.4801 35.9669 62.6237 35.9669C63.7871 35.9669 64.6941 35.5967 65.3448 34.8368C65.9955 34.077 66.311 32.7326 66.311 30.7842C66.311 29.1476 65.9758 27.9396 65.3054 27.1992C64.6349 26.4394 63.7279 26.0692 62.5843 26.0692C61.5787 26.0302 60.6125 26.4588 59.9421 27.2187C59.2717 27.9786 58.9365 29.245 58.9365 31.018ZM77.3529 30.9985C77.3529 28.1539 78.1614 25.9328 79.7585 24.3546C81.3556 22.7764 83.6035 21.9776 86.4625 21.9776C89.4005 21.9776 91.668 22.7569 93.2455 24.3156C94.8229 25.8743 95.6313 28.0565 95.6313 30.8622C95.6313 32.9079 95.2764 34.5641 94.5863 35.8695C93.9159 37.1554 92.8708 38.2075 91.5892 38.9089C90.2681 39.6298 88.6315 40 86.6794 40C84.6879 40 83.0514 39.6883 81.75 39.0648C80.4092 38.4023 79.305 37.3697 78.5754 36.1033C77.767 34.7394 77.3529 33.0443 77.3529 30.9985ZM82.795 31.018C82.795 32.7716 83.1302 34.038 83.7809 34.8173C84.4316 35.5772 85.3386 35.9669 86.4823 35.9669C87.6456 35.9669 88.5526 35.5967 89.2033 34.8368C89.854 34.077 90.1695 32.7326 90.1695 30.7842C90.1695 29.1476 89.8343 27.9396 89.1639 27.1992C88.4935 26.4394 87.5865 26.0692 86.4428 26.0692C85.4372 26.0302 84.4513 26.4588 83.8006 27.2187C83.1302 27.9786 82.795 29.245 82.795 31.018Z" fill="#CAC2D7"/>
<path d="M95.0595 22.2893H100.502V35.4213H109V39.7077H95.0398V22.2893H95.0595Z" fill="#CAC2D7"/>
<path d="M89.0611 21.2841C94.5401 17.2042 96.2297 10.2882 92.8348 5.83665C89.4399 1.38515 82.2462 1.08389 76.7671 5.16377C71.2881 9.24366 69.5985 16.1597 72.9934 20.6112C76.3883 25.0627 83.582 25.364 89.0611 21.2841Z" fill="white"/>
<mask id="mask0_413_880" style="mask-type:luminance" maskUnits="userSpaceOnUse" x="71" y="2" width="24" height="23">
<path d="M89.0611 21.2841C94.5401 17.2042 96.2297 10.2882 92.8348 5.83665C89.4399 1.38515 82.2462 1.08389 76.7671 5.16377C71.2881 9.24366 69.5985 16.1597 72.9934 20.6112C76.3883 25.0627 83.582 25.364 89.0611 21.2841Z" fill="white"/>
</mask>
<g mask="url(#mask0_413_880)">
<path d="M59.0203 11.0162L87.3336 -10.0669L106.926 15.6229L78.6123 36.706L59.0203 11.0162Z" fill="white"/>
<mask id="mask1_413_880" style="mask-type:luminance" maskUnits="userSpaceOnUse" x="59" y="-11" width="48" height="48">
<path d="M59.0203 11.0162L87.3336 -10.0669L106.926 15.6229L78.6123 36.706L59.0203 11.0162Z" fill="white"/>
</mask>
<g mask="url(#mask1_413_880)">
<path d="M89.0611 21.2841C94.5401 17.2042 96.2297 10.2882 92.8348 5.83665C89.4399 1.38515 82.2462 1.08389 76.7671 5.16377C71.2881 9.24366 69.5985 16.1597 72.9934 20.6112C76.3883 25.0627 83.582 25.364 89.0611 21.2841Z" fill="white"/>
<mask id="mask2_413_880" style="mask-type:luminance" maskUnits="userSpaceOnUse" x="71" y="2" width="24" height="23">
<path d="M89.0611 21.2841C94.5401 17.2042 96.2297 10.2882 92.8348 5.83665C89.4399 1.38515 82.2462 1.08389 76.7671 5.16377C71.2881 9.24366 69.5985 16.1597 72.9934 20.6112C76.3883 25.0627 83.582 25.364 89.0611 21.2841Z" fill="white"/>
</mask>
<g mask="url(#mask2_413_880)">
<path d="M66.9045 12.7316L86.7304 -2.03093L99.036 14.1052L79.2101 28.8677L66.9045 12.7316Z" fill="white"/>
<mask id="mask3_413_880" style="mask-type:luminance" maskUnits="userSpaceOnUse" x="66" y="-3" width="34" height="32">
<path d="M66.9045 12.7316L86.7304 -2.03093L99.036 14.1052L79.2101 28.8677L66.9045 12.7316Z" fill="white"/>
</mask>
<g mask="url(#mask3_413_880)">
<path d="M89.0611 21.2841C94.5401 17.2042 96.2297 10.2882 92.8348 5.83665C89.4399 1.38515 82.2462 1.08389 76.7671 5.16377C71.2881 9.24366 69.5985 16.1597 72.9934 20.6112C76.3883 25.0627 83.582 25.364 89.0611 21.2841Z" fill="white" stroke="#CAC2D7" stroke-width="4" stroke-miterlimit="10"/>
</g>
<mask id="mask4_413_880" style="mask-type:luminance" maskUnits="userSpaceOnUse" x="69" y="-2" width="28" height="30">
<path d="M69.7297 22.3943L76.5408 -1.15753L96.2276 4.43953L89.4165 27.9913L69.7297 22.3943Z" fill="white"/>
</mask>
<g mask="url(#mask4_413_880)">
<path d="M66.9045 12.7062L86.7054 -2.03094L99.036 14.1305L79.2351 28.8676L66.9045 12.7062Z" stroke="#CAC2D7" stroke-width="4" stroke-miterlimit="10"/>
</g>
<path d="M89.0611 21.2841C94.5401 17.2042 96.2297 10.2882 92.8348 5.83665C89.4399 1.38515 82.2462 1.08389 76.7671 5.16377C71.2881 9.24366 69.5985 16.1597 72.9934 20.6112C76.3883 25.0627 83.582 25.364 89.0611 21.2841Z" stroke="#CAC2D7" stroke-width="4" stroke-miterlimit="10"/>
<path d="M66.9045 12.7316L86.7304 -2.03093L99.036 14.1052L79.2101 28.8677L66.9045 12.7316Z" fill="white"/>
<mask id="mask5_413_880" style="mask-type:luminance" maskUnits="userSpaceOnUse" x="66" y="-3" width="34" height="32">
<path d="M66.9045 12.7316L86.7304 -2.03093L99.036 14.1052L79.2101 28.8677L66.9045 12.7316Z" fill="white"/>
</mask>
<g mask="url(#mask5_413_880)">
<path d="M89.0611 21.2841C94.5401 17.2042 96.2297 10.2882 92.8348 5.83665C89.4399 1.38515 82.2462 1.08389 76.7671 5.16377C71.2881 9.24366 69.5985 16.1597 72.9934 20.6112C76.3883 25.0627 83.582 25.364 89.0611 21.2841Z" fill="white" stroke="#CAC2D7" stroke-width="4" stroke-miterlimit="10"/>
</g>
<mask id="mask6_413_880" style="mask-type:luminance" maskUnits="userSpaceOnUse" x="69" y="-2" width="28" height="30">
<path d="M69.7297 22.3943L76.5408 -1.15753L96.2276 4.43953L89.4165 27.9913L69.7297 22.3943Z" fill="white"/>
</mask>
<g mask="url(#mask6_413_880)">
<path d="M66.9045 12.7062L86.7054 -2.03094L99.036 14.1305L79.2351 28.8676L66.9045 12.7062Z" stroke="#CAC2D7" stroke-width="4" stroke-miterlimit="10"/>
</g>
<path d="M59.0203 11.0162L87.3336 -10.0669L106.926 15.6229L78.6123 36.706L59.0203 11.0162Z" stroke="#CAC2D7" stroke-width="4" stroke-miterlimit="10"/>
</g>
<path d="M89.0611 21.2841C94.5401 17.2042 96.2297 10.2882 92.8348 5.83665C89.4399 1.38515 82.2462 1.08389 76.7671 5.16377C71.2881 9.24366 69.5985 16.1597 72.9934 20.6112C76.3883 25.0627 83.582 25.364 89.0611 21.2841Z" stroke="#CAC2D7" stroke-width="4" stroke-miterlimit="10"/>
<path d="M77.3726 11.9435L79.3444 10.5796L81.7697 13.9893C82.1837 14.5348 82.4992 15.1193 82.7358 15.7623C82.8739 16.2494 82.8344 16.7754 82.6372 17.243C82.3809 17.8275 81.9668 18.3146 81.4147 18.6653C80.7641 19.1135 80.212 19.3668 79.7387 19.4447C79.2852 19.5226 78.812 19.4447 78.3782 19.2499C77.905 19.0161 77.4909 18.6848 77.1754 18.2562L78.8711 16.6975C79.0092 16.9118 79.1866 17.1067 79.3838 17.2625C79.5218 17.3599 79.6796 17.4184 79.857 17.4184C79.9951 17.4184 80.1331 17.3599 80.2317 17.282C80.4289 17.1651 80.5669 16.9313 80.5472 16.6975C80.488 16.3663 80.35 16.035 80.1331 15.7818L77.3726 11.9435ZM83.2879 14.1062L85.0823 12.7033C85.2794 12.9371 85.5358 13.1125 85.8118 13.2099C86.2062 13.3268 86.6202 13.2489 86.9554 12.9956C87.1921 12.8397 87.3892 12.6254 87.4681 12.3526C87.5864 12.0019 87.3892 11.6123 87.0343 11.4954C86.9752 11.4759 86.916 11.4564 86.8569 11.4564C86.6202 11.4369 86.2062 11.5343 85.5949 11.7876C84.5893 12.1968 83.8006 12.3526 83.2091 12.2942C82.6372 12.2357 82.1049 11.9435 81.7894 11.4564C81.5528 11.1252 81.4345 10.7355 81.4147 10.3458C81.4147 9.89769 81.533 9.44957 81.7894 9.07938C82.164 8.55332 82.6175 8.10519 83.1696 7.75449C83.9978 7.18946 84.7273 6.91669 85.3583 6.91669C85.9893 6.91669 86.5808 7.20894 87.1329 7.81294L85.3583 9.19628C85.0034 8.74815 84.333 8.65073 83.8795 9.00144L83.8203 9.05989C83.6231 9.17679 83.4851 9.35215 83.4062 9.56647C83.3471 9.72234 83.3865 9.89769 83.4851 10.0341C83.564 10.1315 83.6823 10.2094 83.8203 10.2094C83.9781 10.2289 84.2541 10.151 84.6485 9.97563C85.6344 9.56647 86.3836 9.33266 86.8963 9.25473C87.3301 9.17679 87.7836 9.21576 88.1977 9.39111C88.5723 9.54698 88.8878 9.81976 89.1047 10.151C89.3807 10.5407 89.5385 11.0083 89.5582 11.4954C89.5779 12.0019 89.4399 12.489 89.1638 12.9177C88.8089 13.4437 88.3554 13.8918 87.823 14.2426C86.7385 14.9829 85.8512 15.2947 85.1414 15.1778C84.3724 15.0609 83.7414 14.6712 83.2879 14.1062Z" fill="#CAC2D7"/>
</g>
</g>
</g>
<defs>
<clipPath id="clip0_413_880">
<rect width="109" height="40" fill="white"/>
</clipPath>
</defs>
</svg>
